<?xml version="1.0" standalone="no"?>
<!DOCTYPE svg PUBLIC "-//W3C//DTD SVG 20010904//EN"
 "http://www.w3.org/TR/2001/REC-SVG-20010904/DTD/svg10.dtd">
<svg version="1.0" xmlns="http://www.w3.org/2000/svg"
 width="302.000000pt" height="300.000000pt" viewBox="0 0 302.000000 300.000000"
 preserveAspectRatio="xMidYMid meet">

<g transform="translate(0.000000,300.000000) scale(0.100000,-0.100000)"
fill="#000000" stroke="none">
<path d="M2789 1645 c-187 -185 -259 -268 -246 -281 11 -11 68 8 98 33 49 42
359 416 359 434 0 5 -3 9 -8 9 -4 0 -96 -88 -203 -195z"/>
<path d="M1335 1800 c-37 -41 11 -104 61 -81 50 23 34 101 -21 101 -12 0 -30
-9 -40 -20z"/>
<path d="M995 1801 c-16 -7 -24 -28 -38 -99 -18 -89 -19 -90 -38 -71 -39 39
-121 17 -180 -48 -39 -43 -79 -135 -79 -182 0 -58 -71 -111 -148 -111 -48 0
-72 26 -72 76 0 29 3 31 52 42 75 18 117 48 140 100 47 105 -27 174 -135 128
-71 -30 -133 -137 -144 -248 -9 -105 31 -158 120 -158 53 0 109 24 146 64 28
30 41 33 41 10 0 -8 13 -29 29 -45 24 -24 38 -29 75 -29 39 0 52 6 83 34 l37
33 15 -31 c24 -48 87 -49 109 -1 11 23 10 25 -13 25 -17 0 -26 7 -30 23 -3 12
17 127 45 255 27 129 50 236 50 238 0 7 -44 3 -65 -5z m-397 -223 c7 -60 -54
-130 -125 -144 l-32 -6 11 38 c25 94 70 147 118 142 19 -2 26 -10 28 -30z
m316 16 c19 -19 21 0 -9 -135 -21 -98 -29 -118 -55 -141 -37 -34 -73 -36 -94
-6 -44 63 16 245 95 285 32 17 44 16 63 -3z"/>
<path d="M1935 1801 c-17 -7 -27 -41 -64 -217 -24 -115 -50 -220 -56 -234 -30
-59 -87 -79 -93 -32 -2 13 6 63 17 111 28 120 28 165 -4 196 -38 39 -97 32
-151 -16 -20 -19 -21 -19 -16 12 4 30 4 30 -34 27 l-39 -3 -23 -110 c-13 -60
-28 -127 -33 -147 -18 -71 -89 -126 -106 -82 -3 9 8 84 26 168 17 83 31 157
31 164 0 13 -65 17 -73 5 -3 -5 -19 -75 -37 -158 -34 -159 -35 -219 -4 -242
27 -19 78 -16 108 8 l26 20 0 -20 c0 -18 6 -21 39 -21 l38 0 28 133 c15 72 34
144 41 159 17 33 61 68 86 68 36 0 41 -39 19 -134 -27 -114 -28 -179 -1 -206
26 -26 80 -26 114 1 l26 20 0 -20 c0 -18 6 -21 39 -21 l39 0 17 92 c20 103 51
148 99 148 34 0 47 -27 36 -76 -25 -106 -3 -164 63 -164 38 0 50 7 66 38 11
20 10 22 -18 22 -37 0 -46 24 -32 77 23 82 7 149 -38 159 -14 3 -30 7 -36 8
-5 1 25 26 68 55 42 28 77 54 77 56 0 3 -15 5 -32 5 -25 0 -53 -16 -116 -66
-46 -36 -86 -64 -88 -61 -4 4 30 177 52 263 5 20 3 24 -17 23 -13 0 -33 -4
-44 -8z"/>
<path d="M136 1642 c-6 -11 -86 -379 -86 -398 0 -10 12 -14 38 -14 l39 0 28
138 c36 175 38 179 80 199 30 14 40 15 56 5 27 -17 58 -6 65 24 16 62 -63 70
-122 13 l-33 -32 6 36 c6 37 5 37 -30 37 -20 0 -38 -4 -41 -8z"/>
<path d="M2497 1332 c-10 -10 -14 -22 -10 -26 4 -3 -9 -20 -28 -36 l-34 -29
40 14 c38 12 75 53 75 83 0 18 -24 15 -43 -6z"/>
<path d="M2225 1270 c-3 -5 -1 -10 4 -10 6 0 10 -6 9 -12 -2 -9 12 -13 42 -14
l45 -2 -40 7 c-26 4 -35 9 -27 14 6 5 12 12 12 18 0 12 -37 12 -45 -1z"/>
<path d="M2353 1243 c9 -2 23 -2 30 0 6 3 -1 5 -18 5 -16 0 -22 -2 -12 -5z"/>
</g>
</svg>
